<?xml version="1.0" encoding="utf-8"?>
<svg xmlns="http://www.w3.org/2000/svg" viewBox="0 0 24 24" width="24" height="24" fill="none">
  <path fill="#111" d="M12 .5C5.73.5.5 5.73.5 12c0 5.08 3.29 9.39 7.86 10.91.58.11.79-.25.79-.56 0-.28-.01-1.02-.02-2-3.2.7-3.88-1.54-3.88-1.54-.53-1.36-1.3-1.72-1.3-1.72-1.06-.73.08-.72.08-.72 1.17.08 1.78 1.2 1.78 1.2 1.04 1.78 2.73 1.27 3.4.97.11-.76.41-1.27.74-1.56-2.56-.29-5.26-1.28-5.26-5.71 0-1.26.45-2.29 1.2-3.1-.12-.29-.52-1.48.11-3.08 0 0 .98-.31 3.2 1.19.93-.26 1.93-.39 2.92-.39s1.99.13 2.92.39c2.22-1.5 3.2-1.19 3.2-1.19.63 1.6.23 2.79.11 3.08.75.81 1.2 1.84 1.2 3.1 0 4.44-2.7 5.41-5.27 5.69.42.36.8 1.08.8 2.18 0 1.58-.01 2.86-.01 3.25 0 .31.21.68.8.56C20.71 21.39 24 17.08 24 12c0-6.27-5.23-11.5-12-11.5z"/>
</svg>
